<svg xmlns="http://www.w3.org/2000/svg" version="1.1" xmlns:xlink="http://www.w3.org/1999/xlink" xmlns:svgjs="http://svgjs.com/svgjs" width="1600" height="900" preserveAspectRatio="none" viewBox="0 0 1600 900"><g mask="url(&quot;#SvgjsMask1166&quot;)" fill="none"><rect width="1600" height="900" x="0" y="0" fill="rgba(251, 253, 255, 1)"></rect><use xlink:href="#SvgjsSymbol1173" x="0" y="0"></use><use xlink:href="#SvgjsSymbol1173" x="0" y="720"></use><use xlink:href="#SvgjsSymbol1173" x="720" y="0"></use><use xlink:href="#SvgjsSymbol1173" x="720" y="720"></use><use xlink:href="#SvgjsSymbol1173" x="1440" y="0"></use><use xlink:href="#SvgjsSymbol1173" x="1440" y="720"></use></g><defs><mask id="SvgjsMask1166"><rect width="1600" height="900" fill="#ffffff"></rect></mask><path d="M-1 0 a1 1 0 1 0 2 0 a1 1 0 1 0 -2 0z" id="SvgjsPath1171"></path><path d="M-3 0 a3 3 0 1 0 6 0 a3 3 0 1 0 -6 0z" id="SvgjsPath1172"></path><path d="M-5 0 a5 5 0 1 0 10 0 a5 5 0 1 0 -10 0z" id="SvgjsPath1167"></path><path d="M2 -2 L-2 2z" id="SvgjsPath1170"></path><path d="M6 -6 L-6 6z" id="SvgjsPath1168"></path><path d="M30 -30 L-30 30z" id="SvgjsPath1169"></path></defs><symbol id="SvgjsSymbol1173"><use xlink:href="#SvgjsPath1167" x="30" y="30" stroke="#1c538e"></use><use xlink:href="#SvgjsPath1168" x="30" y="90" stroke="#1c538e"></use><use xlink:href="#SvgjsPath1167" x="30" y="150" stroke="#1c538e"></use><use xlink:href="#SvgjsPath1169" x="30" y="210" stroke="#1c538e" stroke-width="3"></use><use xlink:href="#SvgjsPath1168" x="30" y="270" stroke="#1c538e"></use><use xlink:href="#SvgjsPath1169" x="30" y="330" stroke="#1c538e" stroke-width="3"></use><use xlink:href="#SvgjsPath1170" x="30" y="390" stroke="#1c538e"></use><use xlink:href="#SvgjsPath1168" x="30" y="450" stroke="#1c538e"></use><use xlink:href="#SvgjsPath1167" x="30" y="510" stroke="#1c538e"></use><use xlink:href="#SvgjsPath1170" x="30" y="570" stroke="#1c538e"></use><use xlink:href="#SvgjsPath1169" x="30" y="630" stroke="#1c538e" stroke-width="3"></use><use xlink:href="#SvgjsPath1168" x="30" y="690" stroke="#1c538e"></use><use xlink:href="#SvgjsPath1169" x="90" y="30" stroke="#1c538e" stroke-width="3"></use><use xlink:href="#SvgjsPath1171" x="90" y="90" stroke="#1c538e"></use><use xlink:href="#SvgjsPath1168" x="90" y="150" stroke="#1c538e"></use><use xlink:href="#SvgjsPath1167" x="90" y="210" stroke="#1c538e"></use><use xlink:href="#SvgjsPath1172" x="90" y="270" stroke="#1c538e"></use><use xlink:href="#SvgjsPath1172" x="90" y="330" stroke="#1c538e"></use><use xlink:href="#SvgjsPath1169" x="90" y="390" stroke="#1c538e" stroke-width="3"></use><use xlink:href="#SvgjsPath1167" x="90" y="450" stroke="#1c538e"></use><use xlink:href="#SvgjsPath1168" x="90" y="510" stroke="#1c538e"></use><use xlink:href="#SvgjsPath1167" x="90" y="570" stroke="#1c538e"></use><use xlink:href="#SvgjsPath1168" x="90" y="630" stroke="#1c538e"></use><use xlink:href="#SvgjsPath1167" x="90" y="690" stroke="#1c538e"></use><use xlink:href="#SvgjsPath1172" x="150" y="30" stroke="#1c538e"></use><use xlink:href="#SvgjsPath1168" x="150" y="90" stroke="#1c538e"></use><use xlink:href="#SvgjsPath1168" x="150" y="150" stroke="#1c538e"></use><use xlink:href="#SvgjsPath1167" x="150" y="210" stroke="#1c538e"></use><use xlink:href="#SvgjsPath1172" x="150" y="270" stroke="#1c538e"></use><use xlink:href="#SvgjsPath1170" x="150" y="330" stroke="#1c538e"></use><use xlink:href="#SvgjsPath1168" x="150" y="390" stroke="#1c538e"></use><use xlink:href="#SvgjsPath1168" x="150" y="450" stroke="#1c538e"></use><use xlink:href="#SvgjsPath1167" x="150" y="510" stroke="#1c538e"></use><use xlink:href="#SvgjsPath1167" x="150" y="570" stroke="#1c538e"></use><use xlink:href="#SvgjsPath1168" x="150" y="630" stroke="#1c538e"></use><use xlink:href="#SvgjsPath1168" x="150" y="690" stroke="#1c538e"></use><use xlink:href="#SvgjsPath1168" x="210" y="30" stroke="#1c538e"></use><use xlink:href="#SvgjsPath1171" x="210" y="90" stroke="#1c538e"></use><use xlink:href="#SvgjsPath1167" x="210" y="150" stroke="#1c538e"></use><use xlink:href="#SvgjsPath1168" x="210" y="210" stroke="#1c538e"></use><use xlink:href="#SvgjsPath1172" x="210" y="270" stroke="#1c538e"></use><use xlink:href="#SvgjsPath1167" x="210" y="330" stroke="#1c538e"></use><use xlink:href="#SvgjsPath1169" x="210" y="390" stroke="#1c538e" stroke-width="3"></use><use xlink:href="#SvgjsPath1168" x="210" y="450" stroke="#1c538e"></use><use xlink:href="#SvgjsPath1170" x="210" y="510" stroke="#1c538e"></use><use xlink:href="#SvgjsPath1168" x="210" y="570" stroke="#1c538e"></use><use xlink:href="#SvgjsPath1168" x="210" y="630" stroke="#1c538e"></use><use xlink:href="#SvgjsPath1171" x="210" y="690" stroke="#1c538e"></use><use xlink:href="#SvgjsPath1168" x="270" y="30" stroke="#1c538e"></use><use xlink:href="#SvgjsPath1167" x="270" y="90" stroke="#1c538e"></use><use xlink:href="#SvgjsPath1172" x="270" y="150" stroke="#1c538e"></use><use xlink:href="#SvgjsPath1167" x="270" y="210" stroke="#1c538e"></use><use xlink:href="#SvgjsPath1168" x="270" y="270" stroke="#1c538e"></use><use xlink:href="#SvgjsPath1168" x="270" y="330" stroke="#1c538e"></use><use xlink:href="#SvgjsPath1167" x="270" y="390" stroke="#1c538e"></use><use xlink:href="#SvgjsPath1172" x="270" y="450" stroke="#1c538e"></use><use xlink:href="#SvgjsPath1170" x="270" y="510" stroke="#1c538e"></use><use xlink:href="#SvgjsPath1169" x="270" y="570" stroke="#1c538e" stroke-width="3"></use><use xlink:href="#SvgjsPath1168" x="270" y="630" stroke="#1c538e"></use><use xlink:href="#SvgjsPath1168" x="270" y="690" stroke="#1c538e"></use><use xlink:href="#SvgjsPath1169" x="330" y="30" stroke="#1c538e" stroke-width="3"></use><use xlink:href="#SvgjsPath1168" x="330" y="90" stroke="#1c538e"></use><use xlink:href="#SvgjsPath1170" x="330" y="150" stroke="#1c538e"></use><use xlink:href="#SvgjsPath1168" x="330" y="210" stroke="#1c538e"></use><use xlink:href="#SvgjsPath1168" x="330" y="270" stroke="#1c538e"></use><use xlink:href="#SvgjsPath1168" x="330" y="330" stroke="#1c538e"></use><use xlink:href="#SvgjsPath1170" x="330" y="390" stroke="#1c538e"></use><use xlink:href="#SvgjsPath1167" x="330" y="450" stroke="#1c538e"></use><use xlink:href="#SvgjsPath1167" x="330" y="510" stroke="#1c538e"></use><use xlink:href="#SvgjsPath1168" x="330" y="570" stroke="#1c538e"></use><use xlink:href="#SvgjsPath1168" x="330" y="630" stroke="#1c538e"></use><use xlink:href="#SvgjsPath1172" x="330" y="690" stroke="#1c538e"></use><use xlink:href="#SvgjsPath1170" x="390" y="30" stroke="#1c538e"></use><use xlink:href="#SvgjsPath1170" x="390" y="90" stroke="#1c538e"></use><use xlink:href="#SvgjsPath1168" x="390" y="150" stroke="#1c538e"></use><use xlink:href="#SvgjsPath1170" x="390" y="210" stroke="#1c538e"></use><use xlink:href="#SvgjsPath1168" x="390" y="270" stroke="#1c538e"></use><use xlink:href="#SvgjsPath1171" x="390" y="330" stroke="#1c538e"></use><use xlink:href="#SvgjsPath1168" x="390" y="390" stroke="#1c538e"></use><use xlink:href="#SvgjsPath1171" x="390" y="450" stroke="#1c538e"></use><use xlink:href="#SvgjsPath1170" x="390" y="510" stroke="#1c538e"></use><use xlink:href="#SvgjsPath1167" x="390" y="570" stroke="#1c538e"></use><use xlink:href="#SvgjsPath1167" x="390" y="630" stroke="#1c538e"></use><use xlink:href="#SvgjsPath1168" x="390" y="690" stroke="#1c538e"></use><use xlink:href="#SvgjsPath1167" x="450" y="30" stroke="#1c538e"></use><use xlink:href="#SvgjsPath1168" x="450" y="90" stroke="#1c538e"></use><use xlink:href="#SvgjsPath1171" x="450" y="150" stroke="#1c538e"></use><use xlink:href="#SvgjsPath1170" x="450" y="210" stroke="#1c538e"></use><use xlink:href="#SvgjsPath1171" x="450" y="270" stroke="#1c538e"></use><use xlink:href="#SvgjsPath1168" x="450" y="330" stroke="#1c538e"></use><use xlink:href="#SvgjsPath1169" x="450" y="390" stroke="#1c538e" stroke-width="3"></use><use xlink:href="#SvgjsPath1172" x="450" y="450" stroke="#1c538e"></use><use xlink:href="#SvgjsPath1168" x="450" y="510" stroke="#1c538e"></use><use xlink:href="#SvgjsPath1168" x="450" y="570" stroke="#1c538e"></use><use xlink:href="#SvgjsPath1168" x="450" y="630" stroke="#1c538e"></use><use xlink:href="#SvgjsPath1170" x="450" y="690" stroke="#1c538e"></use><use xlink:href="#SvgjsPath1169" x="510" y="30" stroke="#1c538e" stroke-width="3"></use><use xlink:href="#SvgjsPath1168" x="510" y="90" stroke="#1c538e"></use><use xlink:href="#SvgjsPath1167" x="510" y="150" stroke="#1c538e"></use><use xlink:href="#SvgjsPath1167" x="510" y="210" stroke="#1c538e"></use><use xlink:href="#SvgjsPath1167" x="510" y="270" stroke="#1c538e"></use><use xlink:href="#SvgjsPath1168" x="510" y="330" stroke="#1c538e"></use><use xlink:href="#SvgjsPath1168" x="510" y="390" stroke="#1c538e"></use><use xlink:href="#SvgjsPath1172" x="510" y="450" stroke="#1c538e"></use><use xlink:href="#SvgjsPath1167" x="510" y="510" stroke="#1c538e"></use><use xlink:href="#SvgjsPath1169" x="510" y="570" stroke="#1c538e" stroke-width="3"></use><use xlink:href="#SvgjsPath1168" x="510" y="630" stroke="#1c538e"></use><use xlink:href="#SvgjsPath1168" x="510" y="690" stroke="#1c538e"></use><use xlink:href="#SvgjsPath1172" x="570" y="30" stroke="#1c538e"></use><use xlink:href="#SvgjsPath1171" x="570" y="90" stroke="#1c538e"></use><use xlink:href="#SvgjsPath1171" x="570" y="150" stroke="#1c538e"></use><use xlink:href="#SvgjsPath1167" x="570" y="210" stroke="#1c538e"></use><use xlink:href="#SvgjsPath1172" x="570" y="270" stroke="#1c538e"></use><use xlink:href="#SvgjsPath1167" x="570" y="330" stroke="#1c538e"></use><use xlink:href="#SvgjsPath1167" x="570" y="390" stroke="#1c538e"></use><use xlink:href="#SvgjsPath1167" x="570" y="450" stroke="#1c538e"></use><use xlink:href="#SvgjsPath1168" x="570" y="510" stroke="#1c538e"></use><use xlink:href="#SvgjsPath1169" x="570" y="570" stroke="#1c538e" stroke-width="3"></use><use xlink:href="#SvgjsPath1167" x="570" y="630" stroke="#1c538e"></use><use xlink:href="#SvgjsPath1168" x="570" y="690" stroke="#1c538e"></use><use xlink:href="#SvgjsPath1167" x="630" y="30" stroke="#1c538e"></use><use xlink:href="#SvgjsPath1170" x="630" y="90" stroke="#1c538e"></use><use xlink:href="#SvgjsPath1168" x="630" y="150" stroke="#1c538e"></use><use xlink:href="#SvgjsPath1167" x="630" y="210" stroke="#1c538e"></use><use xlink:href="#SvgjsPath1167" x="630" y="270" stroke="#1c538e"></use><use xlink:href="#SvgjsPath1170" x="630" y="330" stroke="#1c538e"></use><use xlink:href="#SvgjsPath1167" x="630" y="390" stroke="#1c538e"></use><use xlink:href="#SvgjsPath1167" x="630" y="450" stroke="#1c538e"></use><use xlink:href="#SvgjsPath1171" x="630" y="510" stroke="#1c538e"></use><use xlink:href="#SvgjsPath1167" x="630" y="570" stroke="#1c538e"></use><use xlink:href="#SvgjsPath1167" x="630" y="630" stroke="#1c538e"></use><use xlink:href="#SvgjsPath1167" x="630" y="690" stroke="#1c538e"></use><use xlink:href="#SvgjsPath1167" x="690" y="30" stroke="#1c538e"></use><use xlink:href="#SvgjsPath1170" x="690" y="90" stroke="#1c538e"></use><use xlink:href="#SvgjsPath1168" x="690" y="150" stroke="#1c538e"></use><use xlink:href="#SvgjsPath1168" x="690" y="210" stroke="#1c538e"></use><use xlink:href="#SvgjsPath1170" x="690" y="270" stroke="#1c538e"></use><use xlink:href="#SvgjsPath1167" x="690" y="330" stroke="#1c538e"></use><use xlink:href="#SvgjsPath1172" x="690" y="390" stroke="#1c538e"></use><use xlink:href="#SvgjsPath1167" x="690" y="450" stroke="#1c538e"></use><use xlink:href="#SvgjsPath1167" x="690" y="510" stroke="#1c538e"></use><use xlink:href="#SvgjsPath1168" x="690" y="570" stroke="#1c538e"></use><use xlink:href="#SvgjsPath1168" x="690" y="630" stroke="#1c538e"></use><use xlink:href="#SvgjsPath1167" x="690" y="690" stroke="#1c538e"></use></symbol></svg>